<svg width="1536" height="1536" viewBox="0 0 1536 1536" fill="none" xmlns="http://www.w3.org/2000/svg">
<g clip-path="url(#clip0_307_579)">
<rect width="1536" height="1536" fill="#084768" fill-opacity="0.27"/>
<rect width="2677" height="2208" transform="translate(-571 -336)" fill="#084768"/>
<path d="M1343.65 414.597H1163.09C1152.19 414.597 1139.36 422.103 1139.36 434.022C1139.36 446.302 1143.86 452.036 1156.36 463.325C1172.98 478.337 1189.52 495.676 1189.52 532.921C1189.33 551.913 1186.1 570.753 1179.94 588.72L1052.69 960.235C1052.36 961.212 1051.73 962.06 1050.9 962.661C1050.06 963.261 1049.05 963.584 1048.02 963.583H1003C1002.21 963.581 1001.44 963.393 1000.74 963.033C1000.04 962.674 999.441 962.154 998.984 961.516C998.527 960.879 998.227 960.141 998.111 959.365C997.994 958.589 998.063 957.797 998.313 957.053C1002.82 943.887 1049.7 813.689 1050.43 789.61C1051.36 756.869 1037.38 716.502 1021.19 669.74L993.615 588.96C986.801 568.484 983.334 549.629 983.334 532.921C983.334 504.999 991.244 486.023 1016.35 463.491C1034.14 447.518 1033.54 442.339 1033.54 434.022C1033.54 424.384 1023.78 414.597 1009.81 414.597H714.187C698.202 414.597 688.941 424.174 688.941 441.168C689.031 446.506 690.047 451.789 691.943 456.78L724.588 550.905C731.027 569.543 731.101 589.791 724.798 608.476L605.504 960.22C605.172 961.2 604.542 962.05 603.703 962.653C602.863 963.256 601.855 963.581 600.822 963.583H555.794C555.009 963.582 554.236 963.394 553.539 963.035C552.841 962.675 552.24 962.155 551.783 961.517C551.327 960.878 551.03 960.14 550.915 959.364C550.801 958.588 550.873 957.796 551.126 957.053C555.629 943.887 602.533 813.689 603.238 789.61C604.169 756.869 590.18 716.502 574 669.74C574 669.74 545.692 585.102 543.546 578.332C538.88 563.668 536.847 548.294 537.542 532.921C537.542 497.478 550.33 480.574 569.062 463.491C585.287 448.734 586.248 439.847 586.248 434.022C586.248 424.219 577.242 414.597 562.503 414.597H191.353C177.634 414.597 169.049 425.871 169.049 435.463C169.049 447.473 173.026 452.802 196.756 466.988C216.944 479.118 260.17 502.101 285.851 575.855C286.136 576.245 449.708 1054.5 449.708 1054.5C466.488 1104.88 485.4 1121.34 522.068 1121.34H569.707C600.551 1121.34 620.619 1107.05 638.165 1054.45L762.967 689.825C763.302 688.854 763.932 688.011 764.769 687.415C765.606 686.818 766.607 686.498 767.635 686.498C768.662 686.498 769.664 686.818 770.501 687.415C771.338 688.011 771.968 688.854 772.303 689.825L896.91 1054.56C913.706 1104.94 932.617 1121.4 969.27 1121.4H1016.86C1047.72 1121.4 1067.79 1107.11 1085.32 1054.51L1248.71 577.131C1259.38 546.041 1272.4 522.608 1287.09 507.22C1303.6 489.852 1315.02 480.484 1338.12 467.123C1361.22 453.763 1366.03 444.921 1366.03 435.403C1365.95 421.337 1356.38 414.597 1343.65 414.597Z" fill="#99E5FF"/>
</g>
<defs>
<clipPath id="clip0_307_579">
<rect width="1536" height="1536" fill="white"/>
</clipPath>
</defs>
</svg>
