<svg id="logo" xmlns="http://www.w3.org/2000/svg" viewBox="0 0 1783.56 1470.83"><defs><style>.cls-1{fill:#084768;}</style></defs><path class="cls-1" d="M1275.64,500h-120.3c-7.26,0-15.81,5-15.81,12.94,0,8.18,3,12,11.33,19.52,11.07,10,22.09,21.55,22.09,46.36a118.13,118.13,0,0,1-6.38,37.17l-84.78,247.48a3.28,3.28,0,0,1-3.11,2.23h-30a3.3,3.3,0,0,1-3.12-4.35c3-8.77,34.24-95.5,34.72-111.54.62-21.81-8.69-48.7-19.48-79.85l-18.37-53.81c-4.54-13.64-6.85-26.2-6.85-37.33,0-18.6,5.27-31.24,22-46.25,11.85-10.64,11.45-14.09,11.45-19.63,0-6.42-6.5-12.94-15.81-12.94H856.26c-10.65,0-16.82,6.38-16.82,17.7a30.74,30.74,0,0,0,2,10.4l21.75,62.7a59.34,59.34,0,0,1,.14,38.35L783.85,863.46a3.3,3.3,0,0,1-3.12,2.24h-30a3.29,3.29,0,0,1-3.11-4.35c3-8.77,34.25-95.5,34.72-111.54.62-21.81-8.7-48.7-19.48-79.85,0,0-18.86-56.38-20.29-60.89a86.81,86.81,0,0,1-4-30.25c0-23.61,8.52-34.87,21-46.25,10.81-9.83,11.45-15.75,11.45-19.63,0-6.53-6-12.94-15.82-12.94H507.92c-9.14,0-14.86,7.51-14.86,13.9,0,8,2.65,11.55,18.46,21,13.45,8.08,42.25,23.39,59.36,72.52.19.26,109.17,318.84,109.17,318.84,11.18,33.56,23.78,44.53,48.21,44.53H760c20.55,0,33.92-9.52,45.61-44.56l83.15-242.89a3.29,3.29,0,0,1,6.22,0L978,926.3c11.19,33.56,23.79,44.53,48.21,44.53h31.71c20.56,0,33.93-9.52,45.61-44.56l108.86-318c7.11-20.71,15.78-36.32,25.57-46.57,11-11.57,18.61-17.81,34-26.71s18.59-14.79,18.59-21.13C1290.5,504.49,1284.12,500,1275.64,500Z"/></svg>